Coordinates
version=1
nRows=10
nColumns=22
inDegrees=yes

Units are S.I. units (second, meters, Newtons, ...)
If the header above contains a line with 'inDegrees', this indicates whether rotational values are in degrees (yes) or radians (no).

endheader
time	pelvis_tilt	pelvis_list	pelvis_rotation	pelvis_tx	pelvis_ty	pelvis_tz	hip_flexion_r	hip_adduction_r	hip_rotation_r	knee_angle_r	ankle_angle_r	subtalar_angle_r	hip_flexion_l	hip_adduction_l	hip_rotation_l	knee_angle_l	ankle_angle_l	subtalar_angle_l	lumbar_extension	lumbar_bending	lumbar_rotation
      3.93000000	      1.99487812	     10.64290899	    180.47827781	      0.20019049	      0.93517202	     -0.64129946	     -6.45445113	      7.80509990	     -5.67590194	    -17.68828435	     18.64198897	      6.57495059	     34.14338905	    -12.63250671	     -9.65681827	    -15.43032037	      7.46852319	     -8.97609602	     -1.45898995	      6.79226542	      4.13362672
      3.94000000	      1.97558337	     10.65996083	    180.48410243	      0.19098272	      0.93379561	     -0.63926441	     -6.79712488	      7.61973411	     -5.53581945	    -18.18331754	     18.63006379	      7.24849671	     34.21417833	    -12.89009529	    -10.39756787	    -15.87469278	      7.57171621	     -9.13223190	     -1.42848505	      6.69858408	      4.21346131
      3.95000000	      1.98289859	     10.67528771	    180.51382967	      0.18162169	      0.93250008	     -0.63696528	     -7.09828492	      7.42152725	     -5.38414480	    -18.70845156	     18.53192335	      7.87647680	     34.28051031	    -13.10003424	    -11.07686323	    -16.45533239	      7.53410415	     -9.21991670	     -1.35484431	      6.61002540	      4.26683742
      3.96000000	      1.99996863	     10.66795987	    180.60145355	      0.17208483	      0.93130793	     -0.63433707	     -7.36692092	      7.18551741	     -5.27210378	    -19.27925888	     18.35443607	      8.62773138	     34.32228082	    -13.22509204	    -11.69187376	    -17.14008738	      7.38264433	     -9.30107739	     -1.25150817	      6.50464273	      4.25170245
      3.97000000	      2.03846603	     10.62341853	    180.74128248	      0.16238946	      0.93023513	     -0.63140384	     -7.59120758	      6.90414269	     -5.17142871	    -19.89167632	     18.09681346	      9.43483553	     34.35468628	    -13.26146133	    -12.27726886	    -17.90555933	      7.04286324	     -9.38280539	     -1.10671890	      6.36091110	      4.19783898
      3.98000000	      2.10216418	     10.53275403	    180.94174842	      0.15254740	      0.92930670	     -0.62816756	     -7.75545583	      6.57292529	     -5.08477890	    -20.56235194	     17.73481700	     10.30393757	     34.38352016	    -13.20074694	    -12.83406240	    -18.71499432	      6.51578623	     -9.47560339	     -0.91605831	      6.16729425	      4.08126384
      3.99000000	      2.18989678	     10.38610842	    181.21381679	      0.14259505	      0.92854635	     -0.62461849	     -7.85059272	      6.18663098	     -5.01150792	    -21.30410238	     17.27597404	     11.21859905	     34.41920963	    -13.03137260	    -13.34265582	    -19.54684127	      5.80645109	     -9.57002747	     -0.68548545	      5.91147546	      3.90133350
      4.00000000	      2.29957585	     10.18353447	    181.56305999	      0.13255754	      0.92798623	     -0.62076959	     -7.86970126	      5.74857901	     -4.96021954	    -22.12693610	     16.70221736	     12.16429595	     34.46885132	    -12.75153755	    -13.76684210	    -20.38440671	      4.96587536	     -9.63604318	     -0.42014272	      5.59056941	      3.65273668
      4.01000000	      2.42497204	      9.93428974	    181.99125943	      0.12246146	      0.92765262	     -0.61663799	     -7.80480050	      5.26854896	     -4.94373816	    -23.05056570	     15.99140079	     13.12037713	     34.53433944	    -12.36748440	    -14.06771533	    -21.22322396	      4.08937332	     -9.63521374	     -0.13147950	      5.21279445	      3.34212889
      4.02000000	      2.55575335	      9.65446755	    182.49652564	      0.11233253	      0.92756069	     -0.61224197	     -7.65685171	      4.76097427	     -4.96992752	    -24.08815951	     15.12967121	     14.08253832	     34.60962897	    -11.89055174	    -14.20738276	    -22.06240076	      3.26385376	     -9.54711359	      0.16388097	      4.79589718	      2.97850889
